<svg width="764" height="148" viewBox="0 0 764 148" fill="none" xmlns="http://www.w3.org/2000/svg">
<path d="M10.8077 146.687C3.31927 144.782 -0.925886 139.202 0.171364 132.707C0.526064 130.608 5.1 120.844 10.3357 111.009C40.7337 53.9085 65.2701 8.69784 67.4494 5.77123C72.5855 -1.12606 80.8614 -1.94994 86.3693 3.88774C88.0505 5.66952 104.959 35.1085 123.943 69.3075L158.46 131.488L152.322 126.281C139.858 115.708 125.675 109.046 110.412 106.594C99.8669 104.9 78.4803 105.847 68.9488 108.43C64.9689 109.509 61.9423 110.02 62.223 109.566C62.5037 109.112 66.3369 106.025 70.7414 102.706C81.0873 94.9099 91.691 89.8612 102.178 87.738L110.563 86.0405L94.7219 57.5839C84.1592 38.6092 78.0462 28.6432 76.376 27.6744C71.7449 24.9882 69.9277 27.0129 59.2486 46.7568C26.4844 107.332 19.6849 120.314 19.6849 122.288C19.6849 128.612 26.3969 129.069 52.408 124.515C73.3865 120.841 97.9849 119.595 110.297 121.581C118.924 122.973 128.879 126.171 136.312 129.938C144.671 134.175 159.393 146.703 153.071 144.199C141.824 139.745 127.034 136.732 112.793 135.993C95.922 135.117 82.0969 136.721 43.0479 144.084C27.9347 146.934 15.6691 147.925 10.8077 146.687ZM209.599 117.877C217.561 97.8109 247.999 22.9096 248.796 21.4205C249.673 19.7802 250.846 19.5864 258.364 19.8392L266.932 20.1274L287.807 71.1274C299.288 99.1774 308.683 122.24 308.683 122.377C308.684 122.515 304.046 122.627 298.376 122.627H288.067L278.406 97.5876L237.218 98.1274L228.185 122.61L207.714 122.628L209.599 117.877ZM271.685 81.1412C271.685 80.8738 268.937 73.7863 265.578 65.3912C262.219 56.9961 259.035 49.0024 258.502 47.6274C257.645 45.416 256.734 47.2048 250.609 63.1236C246.801 73.0215 243.685 81.234 243.685 81.3736C243.685 81.5132 249.985 81.6274 257.685 81.6274C265.385 81.6274 271.685 81.4086 271.685 81.1412ZM328.185 20.1274L347.685 19.5549V105.627H405.685V122.627H327.667L328.185 20.1274ZM427.685 19.6274H447.685V105.627H505.685V122.627H427.685V19.6274ZM527.685 19.5549L547.185 20.1274L547.703 122.627H527.685V19.5549ZM575.185 20.1274L649.685 19.603V37.6274H594.685V61.6274H636.685V77.6274H594.685V105.627H649.685V122.627H574.667L575.185 20.1274ZM674.685 19.3929L700.935 19.8875C729.323 20.4223 734.443 21.1936 743.949 26.3678C750.582 29.9776 758.034 38.3634 760.847 45.3807C762.987 50.7216 763.151 52.5787 763.167 71.6792L763.185 92.2311L759.407 99.8752C755.31 108.165 750.454 113.134 742.454 117.223C733.515 121.793 727.173 122.597 699.935 122.613L674.685 122.627V19.3929ZM731.223 102.112C735.731 99.8065 737.832 97.9431 740.152 94.1955C743.145 89.3583 743.189 89.0888 743.502 73.5677C743.867 55.5061 743.129 51.6749 738.175 45.8871C732.47 39.2216 726.771 37.6274 708.647 37.6274H693.685V105.837L709.507 105.482C724.801 105.139 725.525 105.027 731.223 102.112Z" fill="#003366"/>
</svg>
